PathFileType        4      (X/Y/Z)      C:\Users\cpontonn\Documents\TRAVAIL - COURS\DIGISPORT\Partage Nico\Partage Nico DIGISPORT\TP OPENSIM - eleves - work\DATA\transformed_Statique.trc         
DataRate	CameraRate	NumFrames	NumMarkers	Units	OrigDataRate	OrigDataStartFrame	OrigNumFrames
100.0	100.0	4	38	mm	100.0	306	610
Frame#	Time	LFHD			LBHD			RFHD			RBHD			C7			T10			CLAV			STRN			LSHO			LRAD			LHUM			LWRB			LWRA			LCAR			RSHO			RRAD			RHUM			RWRB			RWRA			RCAR			LFWT			LBWT			RFWT			RBWT			LKNE			LKNI			LANE			LHEE			LANI			LTAR			LTOE			RKNE			RKNI			RANE			RHEE			RANI			RTAR			RTOE			
		X1	Y1	Z1	X2	Y2	Z2	X3	Y3	Z3	X4	Y4	Z4	X5	Y5	Z5	X6	Y6	Z6	X7	Y7	Z7	X8	Y8	Z8	X9	Y9	Z9	X10	Y10	Z10	X11	Y11	Z11	X12	Y12	Z12	X13	Y13	Z13	X14	Y14	Z14	X15	Y15	Z15	X16	Y16	Z16	X17	Y17	Z17	X18	Y18	Z18	X19	Y19	Z19	X20	Y20	Z20	X21	Y21	Z21	X22	Y22	Z22	X23	Y23	Z23	X24	Y24	Z24	X25	Y25	Z25	X26	Y26	Z26	X27	Y27	Z27	X28	Y28	Z28	X29	Y29	Z29	X30	Y30	Z30	X31	Y31	Z31	X32	Y32	Z32	X33	Y33	Z33	X34	Y34	Z34	X35	Y35	Z35	X36	Y36	Z36	X37	Y37	Z37	X38	Y38	Z38	
306	3.05	94.52994999999994	1793.15137	431.8906300000001	102.71441999999996	1743.22595	292.49020000000013	-41.65248000000005	1795.91907	427.21658000000014	-23.169770000000035	1736.10229	276.74515000000014	20.575309999999973	1614.38086	246.17001000000008	19.43467999999998	1387.04004	175.25070000000008	19.339539999999953	1538.69189	373.3762200000001	16.66537999999995	1362.54993	417.3350500000001	221.67263999999997	1577.10254	300.49319000000014	278.89754999999997	1201.25916	280.7574500000001	219.31406999999996	1207.46802	250.37967000000012	291.66259999999994	962.39532	373.2280300000001	217.56470999999993	963.91467	397.76041000000004	270.38634999999994	890.88434	429.7009900000001	-171.18423000000004	1574.94336	299.0974400000001	-239.16472000000002	1199.9646	274.29672	-185.80826000000002	1202.62939	242.23322000000005	-266.52414000000005	958.26971	368.71167	-204.54132000000007	960.37689	407.70660000000004	-262.17560000000003	887.99579	418.30698	117.05028999999995	1068.00452	442.46875000000006	48.21000999999997	1110.96753	250.72231000000005	-74.07112000000005	1068.34705	449.86929000000003	-32.96162000000003	1110.37292	253.14128000000005	189.78991999999997	564.47241	258.96341000000007	81.60259999999997	521.84515	273.12613000000005	194.82731999999996	108.09704999999998	234.14366000000004	136.90287999999998	28.135929999999988	158.80911000000003	108.34080999999998	112.69099999999999	251.34912	229.83129999999994	44.06762999999998	391.90335	149.05520999999993	45.78849999999997	451.25211	-168.50273000000004	559.37177	291.7072800000001	-79.31128000000002	510.05133	285.95090000000005	-184.54453000000004	99.62080999999999	236.95093999999997	-121.06724000000001	31.54228999999999	160.64077999999998	-93.29284000000003	119.48992999999999	253.17693	-220.77434000000005	40.90796999999998	391.90005	-137.38297000000006	42.35332999999997	453.07928	
307	3.06	94.57383999999995	1793.16638	431.8260800000001	102.73934999999996	1743.2113	292.4967000000001	-41.62625000000005	1795.93127	427.18945000000014	-23.183320000000034	1736.07153	276.7265600000001	20.57585999999997	1614.35168	246.14676000000009	19.42856999999998	1387.03601	175.25276000000008	19.347479999999955	1538.66492	373.3536400000001	16.66843999999995	1362.5282	417.34686000000005	221.66660999999996	1577.10156	300.46271000000013	278.8728899999999	1201.25586	280.75195000000014	219.25577999999996	1207.4541	250.3708800000001	290.79299999999995	962.44592	373.0217600000001	217.55918999999994	963.91858	397.78839000000005	270.3642899999999	890.9007	429.7530200000001	-171.18562000000003	1574.92932	299.1050700000001	-239.15678000000003	1199.96094	274.29486	-185.81256000000002	1202.6106	242.24077000000005	-266.51151000000004	958.25879	368.75558	-204.55264000000005	960.37573	407.7657500000001	-262.1624100000001	888.00397	418.35281	117.05233999999994	1067.99902	442.4960300000001	48.21514999999997	1110.97253	250.75702000000007	-74.06825000000006	1068.34436	449.8960000000001	-32.95015000000003	1110.37158	253.15631000000005	189.41306999999998	564.33685	259.20041000000003	81.60371999999997	521.8642	273.15359000000007	195.06713999999997	108.28660999999998	234.15112000000002	136.91848999999996	28.14657999999999	158.80466000000004	108.34872999999997	112.69283999999999	251.36166	229.83886999999993	44.04850999999998	391.89508	149.05218999999994	45.77021999999997	451.25241	-168.49039000000002	559.36224	291.72870000000006	-79.32965000000003	510.07718	285.98810000000003	-184.55978000000002	99.62213999999999	236.97150999999997	-121.08302000000002	31.549119999999988	160.64571999999998	-93.28496000000003	119.50637999999998	253.17386	-220.77257000000006	40.89767999999998	391.90033	-137.39102000000005	42.34961999999997	453.08243	
308	3.07	94.58169999999994	1793.20654	431.77298000000013	102.73152999999996	1743.20276	292.42450000000014	-41.61396000000005	1795.93555	427.1674500000001	-23.184530000000034	1736.04993	276.6937900000001	20.551979999999972	1614.33606	246.1342300000001	19.40582999999998	1387.02759	175.25723000000008	19.352449999999955	1538.64746	373.3232400000001	16.67494999999995	1362.52344	417.3570900000001	221.66584999999998	1577.07178	300.4128700000001	278.86168999999995	1201.22083	280.7370300000001	219.25504999999998	1207.43262	250.37970000000013	290.77620999999994	962.46906	373.0585000000001	217.54517999999993	963.94202	397.85690000000005	270.34191999999996	890.89612	429.8099400000001	-171.18619000000004	1574.92017	299.1145300000001	-239.16212000000002	1199.93652	274.31046	-185.80428000000003	1202.61548	242.25395000000006	-266.49438000000004	958.24261	368.7829	-204.51347000000007	960.3905	407.79776000000004	-262.15222000000006	888.00269	418.39597	117.06231999999994	1067.99695	442.5200500000001	48.20538999999997	1110.948	250.75697000000005	-74.06703000000006	1068.33191	449.91873000000004	-32.963570000000026	1110.35437	253.19373000000004	189.79041999999998	564.47662	259.00223000000005	81.60201999999997	521.86346	273.18658000000005	194.81363999999996	108.08254999999998	234.15465000000003	136.91475999999997	28.13840999999999	158.81566000000004	108.35565999999997	112.69303999999998	251.36975	229.82715999999994	44.05869999999998	391.90247	149.05164999999994	45.77054999999997	451.25009	-168.49796000000003	559.36774	291.77481000000006	-79.30458000000003	510.05878	285.97281000000004	-184.54649000000003	99.62553999999999	236.96346999999997	-121.05862000000002	31.546959999999988	160.65110999999996	-93.30063000000003	119.51701999999999	253.18436	-220.77338000000006	40.88896999999998	391.90665	-137.38776000000004	42.32812999999997	453.07141	
309	3.08	94.58754999999994	1793.20789	431.7388600000001	102.74166999999996	1743.21375	292.39307000000014	-41.59986000000005	1795.97229	427.1171600000001	-23.172850000000036	1736.04688	276.6904600000001	20.58224999999997	1614.33618	246.1229700000001	19.37740999999998	1387.00232	175.25006000000008	19.362699999999954	1538.62134	373.30612000000013	16.697119999999952	1362.50745	417.34030000000007	221.66881999999998	1577.06519	300.3832700000001	278.84899999999993	1201.19678	280.72858000000014	219.24860999999999	1207.42102	250.3559000000001	290.74730999999997	962.46008	373.1019300000001	217.51433999999995	963.95642	397.8872400000001	270.32140999999996	890.9201	429.8718900000001	-171.19040000000004	1574.90234	299.1169400000001	-239.15712000000002	1199.94263	274.31906	-185.78203000000002	1202.59399	242.26872000000006	-266.48352000000006	958.24316	368.81711	-204.50685000000004	960.36121	407.82547000000005	-262.1245400000001	888.00128	418.40933	117.07364999999994	1068.00854	442.54813000000007	48.21441999999997	1110.95264	250.78210000000007	-74.06819000000006	1068.32361	449.95700000000005	-32.96576000000003	1110.36316	253.19232000000005	189.78002999999998	564.48615	259.0039100000001	81.61076999999997	521.87347	273.19620000000003	194.81098999999998	108.08552999999999	234.15820000000002	136.92879999999997	28.17328999999999	158.81216000000003	108.34620999999997	112.69990999999999	251.37611	229.83581999999996	44.06321999999998	391.90457	149.04395999999994	45.77981999999997	451.25876	-168.50702000000004	559.37195	291.7983100000001	-79.33150000000003	510.07095	286.00763000000006	-184.54742000000002	99.62092999999999	236.95669999999998	-121.05756000000001	31.53998999999999	160.63856999999996	-93.30534000000003	119.48970999999999	253.18237	-220.76805000000004	40.89147999999998	391.90662	-137.38164000000006	42.33207999999997	453.08084	
